# xmcd CD database file
#
# Track frame offsets:
#	150
#	17545
#	34105
#	51225
#	61487
#	76512
#	102577
#	116795
#	137725
#	150662
#	173550
#	192325
#	201777
#	213187
#	232402
#	254037
#
# Disc length: 3578 seconds
#
# Revision: 2
# Processed by: cddbd v1.5.2PL0 Copyright (c) Steve Scherf et al.
# Submitted via: CDex 1.72
#
DISCID=e10df810
DTITLE=Bare, Bobby (USA-07-Lullabys. Ledgends and Lies-cty) - Lullabys, Legends and Lies - D 2
DYEAR=2007
DGENRE=Country
TTITLE0=Sylvia's Mother
TTITLE1=Singin' In the Kitchen
TTITLE2=$100,000 In Pennies
TTITLE3=Alimony
TTITLE4=Back Home In Huntsville Again
TTITLE5=Brian Hennessey
TTITLE6=Too Many Nights Alone
TTITLE7=This Guitar Is For Sale
TTITLE8=Rough On The Living
TTITLE9=Numbers
TTITLE10=Tequila Sheila
TTITLE11=Qualudes Again
TTITLE12=Food Blue
TTITLE13=The Jogger
TTITLE14=Me And Jimmy Rodgers
TTITLE15=Time
EXTD=YEAR: 2007
EXTT0=
EXTT1=
EXTT2=
EXTT3=
EXTT4=
EXTT5=
EXTT6=
EXTT7=
EXTT8=
EXTT9=
EXTT10=
EXTT11=
EXTT12=
EXTT13=
EXTT14=
EXTT15=
PLAYORDER=
